<?xml version="1.0" encoding="utf-8"?>
<!-- Generator: Adobe Illustrator 19.0.0, SVG Export Plug-In . SVG Version: 6.00 Build 0)  -->
<!DOCTYPE svg PUBLIC "-//W3C//DTD SVG 1.0//EN" "http://www.w3.org/TR/2001/REC-SVG-20010904/DTD/svg10.dtd">
<svg version="1.0" id="Layer_1" xmlns="http://www.w3.org/2000/svg" xmlns:xlink="http://www.w3.org/1999/xlink" x="0px" y="0px"
	 viewBox="0 0 800 800" enable-background="new 0 0 800 800" xml:space="preserve">
<g id="XMLID_1_">
	<path id="XMLID_3_" d="M129.2,671.2c-75-75-112.5-165.4-112.5-271.1s37.5-196.1,112.5-271.1S294.6,16.3,400.3,16.3
		s196.1,37.5,271.1,112.5S784,294.3,784,400s-37.5,196.1-112.5,271.1S506.1,783.7,400.3,783.7S204.2,746.2,129.2,671.2z M150.3,150
		c-69,69-103.5,152.3-103.5,250s34.5,181,103.5,250s152.3,103.5,250,103.5s181-34.5,250-103.5s103.5-152.3,103.5-250
		s-34.5-181-103.5-250S498,46.5,400.3,46.5S219.3,81,150.3,150z M380.7,264.1c-3,0-4.5-1.5-4.5-4.5v-40.8c0-4,1.5-6,4.5-6h37.8
		c4,0,6,2,6,6v40.8c0,3-2,4.5-6,4.5H380.7z M382.2,590.4c-3,0-4.5-2-4.5-6V330.5c0-4,1.5-6,4.5-6h36.3c3,0,4.5,2,4.5,6v253.8
		c0,4-1.5,6-4.5,6H382.2z"/>
</g>
</svg>
